<svg id="Layer_1" data-name="Layer 1" xmlns="http://www.w3.org/2000/svg" viewBox="0 0 64 64"><defs><style>.cls-1{fill:#dfe8f4;}.cls-2{fill:#ccd8e5;}.cls-3{fill:#0795ff;}.cls-4{fill:#156cdd;}.cls-5{fill:#fff;}</style></defs><title>medical, medicine, healthcare, health, lab</title><rect class="cls-1" x="23.31" y="8" width="17.37" height="5.25" rx="1.97"/><path class="cls-1" d="M37.84,22.51v-10H26.16v9.79a5.26,5.26,0,0,1-2.52,4.45,15.83,15.83,0,1,0,16.59-.08A4.88,4.88,0,0,1,37.84,22.51Z"/><path class="cls-2" d="M20.36,46.61a15.41,15.41,0,0,0,.69,4.15,3.83,3.83,0,0,0,1.31,1.9A15.64,15.64,0,0,0,31.23,56a15.82,15.82,0,0,0,9.12-29.25,5.15,5.15,0,0,1-2.51-4.36V21.25a3.75,3.75,0,0,0-3.75-3.75h0a3.74,3.74,0,0,0-3.74,3.75v7.1a5.32,5.32,0,0,1-2.56,4.46A15.79,15.79,0,0,0,20.36,46.61Z"/><path class="cls-3" d="M44.66,39.49a12,12,0,0,1-11.06,0,3.42,3.42,0,0,0-3.2,0,12,12,0,0,1-11.06,0,3.4,3.4,0,0,0-3.15,0c0,.36,0,.73,0,1.1a15.83,15.83,0,0,0,31.66-.4c0-.24,0-.47,0-.7A3.38,3.38,0,0,0,44.66,39.49Z"/><path class="cls-4" d="M47.8,39.47a3.38,3.38,0,0,0-3.14,0,12,12,0,0,1-11.06,0,3.42,3.42,0,0,0-3.2,0,11.79,11.79,0,0,1-8.91.84,15.74,15.74,0,0,0-1.13,6.27,15.41,15.41,0,0,0,.69,4.15,3.87,3.87,0,0,0,1.28,1.87l.1.08c.27.21.56.42.85.61l.16.11a15.87,15.87,0,0,0,2.61,1.38l.55.22.62.21c.24.07.47.15.71.21l.57.15.87.17.47.08c.46.06.92.11,1.39.13a15.83,15.83,0,0,0,16.6-15.81C47.83,39.93,47.81,39.7,47.8,39.47Z"/><rect class="cls-2" x="26.16" y="13.05" width="11.68" height="1.67"/><path class="cls-5" d="M21,34.86a.9.9,0,0,0,.8-.49,9.76,9.76,0,0,1,5.44-4.74.9.9,0,1,0-.6-1.7,11.56,11.56,0,0,0-6.44,5.62.9.9,0,0,0,.39,1.21A.86.86,0,0,0,21,34.86Z"/></svg>