<svg xmlns="http://www.w3.org/2000/svg" viewBox="0 0 512 512"><defs><style>.cls-1{fill:#4e5e9c;}.cls-2{fill:#da8ab0;}.cls-3{fill:#d89fc2;}.cls-4{fill:#b47998;}.cls-5{fill:none;stroke:#fff;stroke-linejoin:round;stroke-width:10px;}</style></defs><title>Artificial Intelligence</title><g id="BULINE"><circle class="cls-1" cx="256" cy="256" r="256"/></g><g id="Icons"><path class="cls-2" d="M195.27,36.21a48.19,48.19,0,0,1,47.47,56.72h.76V426.72a48.23,48.23,0,1,1-95.68-8.51,47.54,47.54,0,0,1-14.95-2.14A48.21,48.21,0,0,1,101,355.79c.3-1,.64-1.91,1-2.86a37.07,37.07,0,0,1-35.17-42.05,63.17,63.17,0,0,1-3.47-109.56c1.1-.68,2.22-1.32,3.35-1.93a39.42,39.42,0,0,1-.22-4.09A37.1,37.1,0,0,1,102,158.23c-.35-.95-.69-1.9-1-2.88A48.23,48.23,0,0,1,147.82,93a48.16,48.16,0,0,1,47.45-56.74Z"/><path class="cls-3" d="M195.27,36.21A48.23,48.23,0,0,1,243.5,84.44c0,2.89.21,5.6,0,8.49h0V401a48.19,48.19,0,0,1-67.63-52.32A48.27,48.27,0,0,1,129,286.3c.3-1,.64-1.92,1-2.87A37.1,37.1,0,0,1,94.5,246.36a38.92,38.92,0,0,1,.34-5,63.27,63.27,0,0,1-31.52-40.06c1.1-.68,2.22-1.32,3.35-1.93a39.42,39.42,0,0,1-.22-4.09A37.1,37.1,0,0,1,102,158.23c-.35-.95-.69-1.9-1-2.88A48.23,48.23,0,0,1,147.82,93a48.16,48.16,0,0,1,47.45-56.74Z"/><path class="cls-4" d="M60.84,269.7A2,2,0,0,1,57.62,272l-.07-.06a35.46,35.46,0,0,1,47.33-52.81l.42.37a2,2,0,0,1-2,3.44,35.46,35.46,0,0,0-42.5,46.78Z"/><path class="cls-4" d="M167.37,280.11a2,2,0,0,1-.82,3.86h-.09a35.46,35.46,0,0,1-1-70.91H166a2,2,0,0,1,.89,3.85,35.46,35.46,0,0,0,.48,63.2Z"/><path class="cls-4" d="M178,111.55a2,2,0,0,1-3.22,2.29l-.07-.06A35.46,35.46,0,0,1,222.07,61l.41.37a2,2,0,0,1-2,3.43A35.47,35.47,0,0,0,178,111.55Z"/><path class="cls-4" d="M153.69,393.87a1.37,1.37,0,0,1-1.67,2.07l-.05,0A23.88,23.88,0,0,1,173,353l.33.17a1.37,1.37,0,0,1-.64,2.58,23.89,23.89,0,0,0-19,38.1Z"/><path class="cls-4" d="M194.7,264.33a1.37,1.37,0,0,1-1-2.48l.05,0a23.89,23.89,0,0,1,26.81,39.54l-.31.21a1.38,1.38,0,0,1-1.93-1.85,23.89,23.89,0,0,0-23.65-35.39Z"/><path class="cls-4" d="M137.87,140.93a1.37,1.37,0,0,1-1-2.47l0,0A23.89,23.89,0,0,1,163.76,178l-.31.21a1.37,1.37,0,0,1-1.93-1.84,23.89,23.89,0,0,0-23.65-35.4Z"/><path class="cls-4" d="M224.74,434.93a1.92,1.92,0,0,1,2.5,2.76l-.05.07a33.51,33.51,0,0,1-54.86-38.49l.3-.43a1.92,1.92,0,0,1,3.44,1.46,33.52,33.52,0,0,0,48.67,34.63Z"/><path class="cls-4" d="M111.06,330.28a1.37,1.37,0,0,1,.53,2.61l-.06,0a23.88,23.88,0,0,1-19.64-43.54l.34-.16a1.38,1.38,0,0,1,1.59,2.15,23.88,23.88,0,0,0,17.24,38.92Z"/><path class="cls-3" d="M315.73,36.21a48.19,48.19,0,0,0-47.47,56.72h-.76V426.72a48.23,48.23,0,1,0,95.68-8.51,47.54,47.54,0,0,0,14.95-2.14A48.21,48.21,0,0,0,410,355.79c-.3-1-.64-1.91-1-2.86a37.07,37.07,0,0,0,35.17-42.05,63.17,63.17,0,0,0,3.47-109.56c-1.1-.68-2.22-1.32-3.35-1.93a39.42,39.42,0,0,0,.22-4.09A37.1,37.1,0,0,0,409,158.23c.35-.95.69-1.9,1-2.88A48.23,48.23,0,0,0,363.18,93a48.16,48.16,0,0,0-47.45-56.74Z"/><path class="cls-2" d="M315.73,36.21A48.23,48.23,0,0,0,267.5,84.44v8.49h0V401a48.19,48.19,0,0,0,67.63-52.32A48.27,48.27,0,0,0,382,286.3c-.3-1-.64-1.92-1-2.87a37.1,37.1,0,0,0,35.51-37.07,38.92,38.92,0,0,0-.34-5,63.27,63.27,0,0,0,31.52-40.06c-1.1-.68-2.22-1.32-3.35-1.93a39.42,39.42,0,0,0,.22-4.09A37.1,37.1,0,0,0,409,158.23c.35-.95.69-1.9,1-2.88A48.23,48.23,0,0,0,363.18,93a48.16,48.16,0,0,0-47.45-56.74Z"/><path class="cls-4" d="M450.16,269.7a2,2,0,0,0,3.22,2.28l.07-.06a35.46,35.46,0,0,0-47.33-52.81l-.42.37a2,2,0,0,0,2,3.44,35.46,35.46,0,0,1,42.5,46.78Z"/><path class="cls-4" d="M343.63,280.11a2,2,0,0,0,.82,3.86h.09a35.46,35.46,0,0,0,1-70.91H345a2,2,0,0,0-.89,3.85,35.46,35.46,0,0,1-.48,63.2Z"/><path class="cls-4" d="M333,111.55a2,2,0,0,0,3.22,2.29l.07-.06A35.46,35.46,0,0,0,288.93,61l-.41.37a2,2,0,0,0,2,3.43A35.47,35.47,0,0,1,333,111.55Z"/><path class="cls-4" d="M357.31,393.87a1.37,1.37,0,0,0,1.67,2.07l0,0A23.88,23.88,0,0,0,338,353l-.33.17a1.37,1.37,0,0,0,.64,2.58,23.89,23.89,0,0,1,19,38.1Z"/><path class="cls-4" d="M316.3,264.33a1.37,1.37,0,0,0,1-2.48l0,0a23.89,23.89,0,0,0-26.81,39.54l.31.21a1.38,1.38,0,0,0,1.93-1.85,23.89,23.89,0,0,1,23.65-35.39Z"/><path class="cls-4" d="M373.13,140.93a1.37,1.37,0,0,0,1-2.47l-.05,0A23.89,23.89,0,0,0,347.24,178l.31.21a1.37,1.37,0,0,0,1.93-1.84,23.89,23.89,0,0,1,23.65-35.4Z"/><path class="cls-4" d="M286.26,434.93a1.92,1.92,0,0,0-2.5,2.76l.05.07a33.51,33.51,0,0,0,54.86-38.49l-.3-.43a1.92,1.92,0,0,0-3.44,1.46,33.52,33.52,0,0,1-48.67,34.63Z"/><path class="cls-4" d="M399.94,330.28a1.37,1.37,0,0,0-.53,2.61l.06,0a23.88,23.88,0,0,0,19.64-43.54l-.34-.16a1.38,1.38,0,0,0-1.59,2.15,23.88,23.88,0,0,1-17.24,38.92Z"/><polyline class="cls-5" points="243.5 137.25 197.02 137.25 144.5 137.25"/><line class="cls-5" x1="189.83" y1="137.25" x2="189.83" y2="114.36"/><line class="cls-5" x1="243.5" y1="255.91" x2="89.17" y2="255.91"/><line class="cls-5" x1="243.5" y1="194.25" x2="197.02" y2="194.25"/><circle class="cls-5" cx="136.91" cy="138.47" r="11.78"/><circle class="cls-5" cx="189.83" cy="103.7" r="11.78"/><line class="cls-5" x1="317.87" y1="137.25" x2="317.87" y2="114.36"/><circle class="cls-5" cx="317.87" cy="103.7" r="11.78"/><circle class="cls-5" cx="185.86" cy="194.25" r="11.78"/><circle class="cls-5" cx="328.5" cy="255.58" r="11.78"/><circle class="cls-5" cx="380.26" cy="202.7" r="11.78"/><circle class="cls-5" cx="380.26" cy="319.25" r="11.78"/><polyline class="cls-5" points="243.5 377.97 197.02 377.97 144.5 377.97"/><line class="cls-5" x1="189.83" y1="377.97" x2="189.83" y2="400.86"/><line class="cls-5" x1="243.5" y1="320.97" x2="197.02" y2="320.97"/><circle class="cls-5" cx="136.91" cy="376.76" r="11.78"/><circle class="cls-5" cx="189.83" cy="411.52" r="11.78"/><line class="cls-5" x1="319.87" y1="377.97" x2="319.87" y2="400.86"/><circle class="cls-5" cx="319.87" cy="411.52" r="11.78"/><circle class="cls-5" cx="185.86" cy="320.97" r="11.78"/><circle class="cls-5" cx="81.4" cy="255.58" r="11.78"/><polyline class="cls-5" points="328.5 267.37 328.5 320.98 267.5 320.98"/><polyline class="cls-5" points="267.5 194.25 328.5 194.25 328.5 243.79"/><line class="cls-5" x1="380.26" y1="307.46" x2="380.26" y2="214.48"/><polyline class="cls-5" points="380.26 331.04 380.26 377.98 267.5 377.98"/><polyline class="cls-5" points="267.5 137.25 380.26 137.25 380.26 190.91"/></g></svg>