<?xml version="1.0" encoding="UTF-8"?>
<!DOCTYPE svg PUBLIC "-//W3C//DTD SVG 1.1//EN" "http://www.w3.org/Graphics/SVG/1.1/DTD/svg11.dtd">
<!-- Creator: CorelDRAW -->
<svg xmlns="http://www.w3.org/2000/svg" xml:space="preserve" width="2048px" height="2048px" style="shape-rendering:geometricPrecision; text-rendering:geometricPrecision; image-rendering:optimizeQuality; fill-rule:evenodd; clip-rule:evenodd"
viewBox="0 0 2048 2048"
 xmlns:xlink="http://www.w3.org/1999/xlink">
 <defs>
  <style type="text/css">
   <![CDATA[
    .fil5 {fill:none}
    .fil4 {fill:#00897B}
    .fil3 {fill:#33691E;fill-rule:nonzero}
    .fil2 {fill:#558B2F;fill-rule:nonzero}
    .fil1 {fill:#689F38;fill-rule:nonzero}
    .fil0 {fill:#7CB342;fill-rule:nonzero}
   ]]>
  </style>
 </defs>
 <g id="Layer_x0020_1">
  <metadata id="CorelCorpID_0Corel-Layer"/>
  <g id="_360987032">
   <path id="_360987848" class="fil0" d="M1021.17 1789.18c-211.291,0 -402.586,-85.6465 -541.058,-224.118 -138.469,-138.47 -224.118,-329.766 -224.118,-541.058 0,-211.291 85.6489,-402.587 224.118,-541.058 138.471,-138.471 329.766,-224.118 541.058,-224.118 211.291,0 402.586,85.6465 541.059,224.117 138.47,138.473 224.117,329.768 224.117,541.059l-80.5087 0c0,-189.069 -76.6335,-360.238 -200.531,-484.135 -123.898,-123.898 -295.067,-200.531 -484.135,-200.531 -189.069,0 -360.238,76.6335 -484.134,200.532 -123.898,123.897 -200.531,295.066 -200.531,484.134 0,189.069 76.6335,360.238 200.531,484.134 123.897,123.899 295.066,200.532 484.134,200.532l0 80.5087z"/>
   <path id="_360988088" class="fil1" d="M1021.17 1631.59c-167.775,0 -319.672,-68.0079 -429.624,-177.962 -109.954,-109.952 -177.962,-261.851 -177.962,-429.625 0,-167.775 68.0079,-319.673 177.962,-429.625 109.952,-109.954 261.849,-177.962 429.624,-177.962 167.775,0 319.673,68.0079 429.625,177.962 109.954,109.952 177.96,261.851 177.96,429.625l-80.5087 0c0,-145.551 -58.9949,-277.323 -154.375,-372.702 -95.3788,-95.3812 -227.151,-154.375 -372.702,-154.375 -145.552,0 -277.322,58.9937 -372.701,154.375 -95.3812,95.3788 -154.375,227.151 -154.375,372.702 0,145.551 58.9937,277.323 154.375,372.702 95.3788,95.3812 227.149,154.375 372.701,154.375l0 80.5099z"/>
   <path id="_360988232" class="fil2" d="M1021.17 1440.3c-114.952,0 -219.027,-46.5981 -294.36,-121.935 -75.3367,-75.3343 -121.935,-179.408 -121.935,-294.36 0,-114.952 46.5981,-219.026 121.935,-294.36 75.3331,-75.3367 179.408,-121.935 294.36,-121.935 114.952,0 219.025,46.5992 294.362,121.934 75.3343,75.3367 121.932,179.41 121.932,294.362l-80.5087 0c0,-92.7284 -37.5839,-176.677 -98.3457,-237.44 -60.763,-60.7619 -144.711,-98.3457 -237.44,-98.3457 -92.7284,0 -176.677,37.5839 -237.438,98.3469 -60.763,60.7619 -98.3469,144.71 -98.3469,237.438 0,92.7284 37.5839,176.677 98.3469,237.438 60.7619,60.763 144.71,98.3469 237.438,98.3469l0 80.5099z"/>
   <path id="_360987248" class="fil3" d="M1021.17 1253.37c-63.3331,0 -120.676,-25.676 -162.183,-67.1835 -41.5075,-41.5075 -67.1823,-98.8501 -67.1823,-162.183 0,-63.3331 25.6748,-120.676 67.1823,-162.183 41.5075,-41.5075 98.8501,-67.1835 162.183,-67.1835 63.3331,0 120.676,25.676 162.183,67.1835 41.5075,41.5075 67.1835,98.8501 67.1835,162.183l-80.5099 0c0,-41.1095 -16.6606,-78.326 -43.5957,-105.261 -26.9351,-26.9351 -64.1516,-43.5957 -105.261,-43.5957 -41.1095,0 -78.3249,16.6606 -105.26,43.5957 -26.9351,26.9351 -43.5957,64.1516 -43.5957,105.261 0,41.1095 16.6606,78.326 43.5957,105.261 26.9351,26.9351 64.1504,43.5957 105.26,43.5957l0 80.5099z"/>
   <ellipse id="_360987728" class="fil4" cx="1211.09" cy="1134.31" rx="45.9067" ry="45.9067"/>
   <ellipse id="_360987512" class="fil4" cx="1399.39" cy="1134.31" rx="45.9067" ry="45.9067"/>
   <ellipse id="_360987344" class="fil4" cx="1588.5" cy="1134.31" rx="45.9067" ry="45.9067"/>
   <ellipse id="_360987056" class="fil4" cx="1746.09" cy="1134.31" rx="45.9067" ry="45.9067"/>
  </g>
 </g>
 <rect class="fil5" width="2048" height="2048"/>
</svg>
