<?xml version="1.0" encoding="utf-8"?>
<!-- Generator: Adobe Illustrator 22.0.1, SVG Export Plug-In . SVG Version: 6.00 Build 0)  -->
<svg version="1.1" id="Layer_1" xmlns="http://www.w3.org/2000/svg" xmlns:xlink="http://www.w3.org/1999/xlink" x="0px" y="0px"
	 viewBox="0 0 256 256" style="enable-background:new 0 0 256 256;" xml:space="preserve">
<style type="text/css">
	.st0{fill:#3A312A;}
	.st1{fill:#FCE8CB;}
	.st2{fill:#8AC5DC;}
	.st3{fill:#ED6E7A;}
	.st4{fill:#D7E057;}
	.st5{fill:#87796F;}
	.st6{fill:#695B51;}
	.st7{fill:#EF6D7A;}
	.st8{fill:#D6DF58;}
	.st9{fill:#6A5C52;}
	.st10{fill:#F16C7A;}
	.st11{fill:#8AC6DD;}
	.st12{fill:#D34E5C;}
	.st13{fill:#B9C239;}
	.st14{fill:#6CA8BF;}
	.st15{fill:#89C4DB;}
	.st16{fill:#D5DE58;}
	.st17{fill:#DECAAD;}
	.st18{fill:#D5DC57;}
	.st19{fill:#8AC3DA;}
	.st20{fill:#D4DB56;}
	.st21{fill:#EA6D7A;}
	.st22{fill:#FAE6CA;}
	.st23{fill:#EB6E7A;}
	.st24{fill:#F8E4C8;}
	.st25{fill:#E96C7A;}
	.st26{fill:#8AC2D9;}
	.st27{fill:#E86C7A;}
	.st28{fill:#8AC1D8;}
	.st29{fill:#D4DA55;}
</style>
<g>
	<g>
		<g>
			<path class="st3" d="M127.986,17.739c-3.297,0-6.433,0.682-9.28,1.907l-10.719,9.255c-2.217,3.587-3.5,7.812-3.5,12.338
				c0,12.979,10.521,23.5,23.5,23.5s23.5-10.521,23.5-23.5S140.964,17.739,127.986,17.739z"/>
		</g>
	</g>
	<g>
		<g>
			<path class="st0" d="M127.986,16.239c-3.423,0-6.745,0.683-9.874,2.029c-0.761,0.328-1.112,1.21-0.785,1.971
				c0.328,0.761,1.211,1.109,1.971,0.785c2.751-1.185,5.674-1.785,8.687-1.785c12.131,0,22,9.869,22,22s-9.869,22-22,22
				s-22-9.869-22-22c0-4.089,1.133-8.083,3.276-11.55c0.436-0.705,0.217-1.629-0.487-2.064c-0.705-0.435-1.628-0.217-2.064,0.487
				c-2.437,3.941-3.724,8.48-3.724,13.127c0,13.785,11.215,25,25,25s25-11.215,25-25S141.771,16.239,127.986,16.239z"/>
		</g>
	</g>
	<g>
		<g>
			
				<ellipse transform="matrix(0.2189 -0.9757 0.9757 0.2189 64.3485 287.9062)" class="st3" cx="212.008" cy="103.759" rx="23.5" ry="23.5"/>
		</g>
	</g>
	<g>
		<g>
			<path class="st0" d="M234.949,93.822c-5.479-12.649-20.23-18.481-32.877-13.003c-12.649,5.48-18.482,20.229-13.003,32.877
				c4.082,9.423,13.306,15.063,22.976,15.063c3.311,0,6.675-0.662,9.902-2.059c6.128-2.654,10.854-7.536,13.311-13.746
				C237.712,106.744,237.603,99.95,234.949,93.822z M232.466,111.851c-2.161,5.465-6.321,9.761-11.713,12.096
				c-11.13,4.821-24.11-0.312-28.932-11.443c-4.822-11.131,0.312-24.11,11.443-28.932c2.84-1.23,5.799-1.812,8.713-1.812
				c8.509,0,16.627,4.963,20.219,13.255C234.532,100.407,234.627,106.386,232.466,111.851z"/>
		</g>
	</g>
	<g>
		<g>
			
				<ellipse transform="matrix(0.6969 -0.7171 0.7171 0.6969 -88.0311 190.178)" class="st3" cx="180.986" cy="199.239" rx="23.5" ry="23.5"/>
		</g>
	</g>
	<g>
		<g>
			<path class="st0" d="M205.973,198.436c-0.215-6.674-3.016-12.866-7.887-17.433c-4.871-4.567-11.215-6.962-17.904-6.75
				c-6.674,0.215-12.865,3.016-17.433,7.887c-4.567,4.871-6.965,11.229-6.751,17.904c0.215,6.674,3.016,12.866,7.887,17.433
				c4.816,4.516,10.96,6.752,17.092,6.752c6.672,0,13.331-2.648,18.245-7.888C203.79,211.469,206.188,205.11,205.973,198.436z
				 M197.034,214.288c-8.298,8.848-22.248,9.297-31.097,1s-9.298-22.247-1-31.097c4.019-4.287,9.468-6.751,15.341-6.94
				c0.242-0.008,0.483-0.012,0.725-0.012c5.607,0,10.92,2.098,15.03,5.952C204.883,191.489,205.332,205.438,197.034,214.288z"/>
		</g>
	</g>
	<g>
		<g>
			
				<ellipse transform="matrix(0.392 -0.92 0.92 0.392 -68.708 103.5564)" class="st3" cx="43.992" cy="103.759" rx="23.5" ry="23.5"/>
		</g>
	</g>
	<g>
		<g>
			<path class="st0" d="M53.929,80.819c-12.647-5.479-27.398,0.354-32.877,13.003c-2.654,6.127-2.763,12.922-0.308,19.132
				c2.456,6.209,7.183,11.091,13.311,13.746c3.189,1.381,6.558,2.073,9.932,2.073c3.109,0,6.222-0.588,9.2-1.766
				c6.209-2.456,11.091-7.184,13.746-13.311C72.411,101.047,66.578,86.299,53.929,80.819z M64.179,112.504
				c-2.336,5.392-6.631,9.552-12.096,11.713c-5.464,2.161-11.444,2.065-16.836-0.271s-9.552-6.631-11.713-12.096
				c-2.162-5.464-2.065-11.444,0.271-16.836c3.592-8.292,11.71-13.255,20.219-13.255c2.914,0,5.874,0.582,8.713,1.812
				C63.868,88.394,69.001,101.373,64.179,112.504z"/>
		</g>
	</g>
	<g>
		<g>
			<path class="st3" d="M96.69,190.217l-8.921-10.688c-8.855-5.738-20.787-4.975-28.83,2.567c-9.468,8.878-9.946,23.75-1.068,33.217
				c8.878,9.467,23.749,9.946,33.217,1.068C98.437,209.492,100.343,199,96.69,190.217z"/>
		</g>
	</g>
	<g>
		<g>
			<path class="st0" d="M98.075,189.641c-0.318-0.765-1.195-1.127-1.961-0.809c-0.765,0.318-1.127,1.196-0.809,1.961
				c3.504,8.425,1.397,18.269-5.243,24.495c-8.85,8.297-22.799,7.849-31.097-1c-8.297-8.85-7.849-22.799,1-31.097
				c7.387-6.925,18.483-7.914,26.988-2.403c0.698,0.452,1.625,0.251,2.075-0.443c0.451-0.695,0.252-1.624-0.443-2.075
				c-9.665-6.263-22.277-5.139-30.671,2.732c-10.056,9.429-10.565,25.282-1.137,35.337c4.914,5.24,11.572,7.888,18.245,7.888
				c6.132,0,12.277-2.236,17.092-6.752C99.661,210.399,102.057,199.213,98.075,189.641z"/>
		</g>
	</g>
	<g>
		<g>
			<path class="st5" d="M197.181,66.943l-3.658-23.367c-0.346-2.221-2.425-3.732-4.639-3.381c-2.204,0.337-3.722,2.411-3.382,4.633
				l2.137,13.647l-18.73-13.608c-1.815-1.318-4.354-0.916-5.672,0.898v0c-1.318,1.814-0.916,4.354,0.899,5.672l18.771,13.632
				l-13.73,2.15c-2.203,0.343-3.727,2.412-3.381,4.639c0.067,0.425,0.204,0.826,0.387,1.202c0.775,1.527,2.467,2.449,4.256,2.166
				l23.363-3.645C196.008,71.232,197.531,69.156,197.181,66.943z"/>
		</g>
	</g>
	<g>
		<g>
			<path class="st0" d="M198.663,66.71l-3.658-23.366c-0.229-1.469-1.016-2.76-2.216-3.635c-1.201-0.875-2.674-1.226-4.131-0.998
				c-1.464,0.224-2.753,1.008-3.629,2.208c-0.875,1.198-1.233,2.667-1.008,4.14l1.578,10.078L169.79,43.653
				c-1.202-0.873-2.674-1.226-4.139-0.994c-1.467,0.232-2.756,1.022-3.629,2.224c-0.873,1.202-1.226,2.672-0.994,4.139
				c0.232,1.467,1.022,2.756,2.224,3.629l15.833,11.499l-10.142,1.588c-1.463,0.228-2.751,1.012-3.627,2.209
				c-0.878,1.2-1.234,2.671-1.005,4.146c0.086,0.546,0.261,1.092,0.531,1.646c0.958,1.889,2.877,3.038,4.946,3.038
				c0.29,0,0.584-0.022,0.879-0.069l23.363-3.646c0.001,0,0.002,0,0.003,0C197.065,72.583,199.141,69.732,198.663,66.71z
				 M193.565,70.1l-23.363,3.646c-1.111,0.172-2.182-0.374-2.673-1.34c-0.128-0.265-0.214-0.528-0.254-0.778
				c-0.105-0.679,0.059-1.357,0.463-1.91c0.402-0.551,0.994-0.912,1.667-1.017l13.731-2.15c0.6-0.094,1.084-0.541,1.227-1.131
				c0.142-0.59-0.086-1.208-0.577-1.565l-18.771-13.632c-0.553-0.402-0.917-0.995-1.024-1.671s0.056-1.353,0.458-1.906
				c0.402-0.553,0.995-0.917,1.671-1.024c0.136-0.021,0.271-0.032,0.406-0.032c0.536,0,1.058,0.168,1.5,0.49l18.73,13.608
				c0.49,0.356,1.148,0.381,1.665,0.066c0.517-0.316,0.793-0.913,0.699-1.512l-2.136-13.642c-0.104-0.679,0.061-1.358,0.465-1.911
				c0.402-0.55,0.991-0.91,1.668-1.013c0.678-0.107,1.352,0.056,1.904,0.458c0.552,0.402,0.914,0.996,1.019,1.673l3.659,23.369
				C195.919,68.567,194.962,69.879,193.565,70.1z"/>
		</g>
	</g>
	<g>
		<g>
			<path class="st5" d="M231.491,159.638c-1.001-1.992-3.443-2.794-5.451-1.784l-12.318,6.25l7.154-22.019
				c0.693-2.133-0.474-4.424-2.607-5.117l0,0c-2.133-0.693-4.424,0.475-5.117,2.608l-7.164,22.065l-6.288-12.394
				c-1.007-1.989-3.446-2.8-5.457-1.782c-0.383,0.195-0.723,0.45-1.024,0.74c-1.213,1.209-1.567,3.103-0.744,4.717l10.687,21.093
				c1.015,1.992,3.459,2.8,5.457,1.782l21.092-10.7C231.715,164.08,232.509,161.635,231.491,159.638z"/>
		</g>
	</g>
	<g>
		<g>
			<path class="st0" d="M232.831,158.964c-0.665-1.323-1.81-2.307-3.221-2.77c-1.41-0.463-2.918-0.349-4.249,0.321l-9.097,4.615
				l6.038-18.583c0.459-1.413,0.34-2.919-0.334-4.243c-0.674-1.324-1.824-2.305-3.236-2.764c-1.413-0.458-2.92-0.34-4.244,0.334
				c-1.324,0.674-2.305,1.824-2.764,3.237l-6.043,18.611l-4.645-9.154c-0.669-1.321-1.813-2.304-3.222-2.767
				c-1.412-0.463-2.922-0.349-4.254,0.326c-0.491,0.25-0.956,0.585-1.402,1.014c-1.711,1.706-2.122,4.302-1.023,6.457l10.687,21.093
				c0,0.001,0.001,0.002,0.001,0.003c0.983,1.929,2.941,3.041,4.967,3.041c0.845,0,1.703-0.194,2.505-0.603l21.091-10.7
				c1.327-0.672,2.312-1.819,2.773-3.232C233.621,161.789,233.502,160.282,232.831,158.964z M230.308,162.271
				c-0.212,0.649-0.665,1.177-1.277,1.486l-21.095,10.702c-1.253,0.64-2.796,0.135-3.439-1.125L193.81,152.24
				c-0.507-0.995-0.319-2.19,0.448-2.955c0.213-0.205,0.437-0.368,0.662-0.482c0.612-0.311,1.308-0.365,1.959-0.15
				c0.648,0.212,1.174,0.664,1.482,1.272l6.289,12.394c0.275,0.542,0.855,0.859,1.455,0.817c0.605-0.047,1.123-0.455,1.31-1.032
				l7.164-22.065c0.212-0.651,0.663-1.18,1.273-1.491c0.608-0.311,1.304-0.366,1.954-0.154c1.343,0.437,2.081,1.885,1.645,3.228
				l-7.154,22.019c-0.187,0.577-0.009,1.209,0.452,1.603c0.461,0.395,1.113,0.473,1.654,0.198l12.313-6.248
				c0.615-0.308,1.312-0.36,1.962-0.148c0.647,0.212,1.171,0.662,1.479,1.274C230.465,160.928,230.519,161.622,230.308,162.271z"/>
		</g>
	</g>
	<g>
		<g>
			<path class="st5" d="M144.475,213.43l-23.199,0.005l9.844-9.811c1.581-1.572,1.598-4.143,0.008-5.74
				c-0.304-0.304-0.651-0.549-1.02-0.746c-1.525-0.78-3.436-0.531-4.716,0.75l-16.758,16.682c-1.581,1.581-1.593,4.156-0.008,5.74
				l16.695,16.753c1.585,1.594,4.155,1.593,5.74,0.008c1.585-1.568,1.593-4.138,0.013-5.736l-9.75-9.784l23.152-0.001
				c2.243,0,4.061-1.818,4.061-4.061C148.537,215.248,146.718,213.429,144.475,213.43z"/>
		</g>
	</g>
	<g>
		<g>
			<path class="st0" d="M144.475,211.93l-19.567,0.004l7.271-7.246c1.05-1.044,1.63-2.437,1.635-3.919
				c0.004-1.487-0.571-2.887-1.624-3.945c-0.389-0.39-0.851-0.729-1.398-1.021c-2.15-1.1-4.747-0.688-6.457,1.022l-16.757,16.682
				c-0.001,0.001-0.002,0.001-0.002,0.002c-1.048,1.048-1.627,2.442-1.631,3.926c-0.004,1.488,0.573,2.886,1.621,3.934
				l16.694,16.753c1.05,1.055,2.446,1.636,3.932,1.638h0.006c1.483,0,2.877-0.578,3.92-1.621c1.053-1.042,1.635-2.434,1.639-3.919
				c0.004-1.483-0.57-2.882-1.619-3.941l-7.201-7.226l19.54-0.001c3.066,0,5.561-2.495,5.561-5.562
				C150.037,214.424,147.542,211.93,144.475,211.93z M144.476,220.052l-23.152,0.001c-0.606,0-1.153,0.365-1.385,0.925
				s-0.105,1.205,0.323,1.634l9.747,9.781c0.484,0.489,0.749,1.135,0.748,1.82c-0.002,0.681-0.268,1.318-0.755,1.8
				c-0.482,0.482-1.123,0.748-1.805,0.748h-0.003c-0.683,0-1.325-0.269-1.809-0.754l-16.697-16.756
				c-0.481-0.481-0.745-1.123-0.744-1.807c0.002-0.684,0.268-1.327,0.751-1.81l16.759-16.684c0.79-0.79,1.984-0.98,2.948-0.488
				c0.262,0.14,0.486,0.303,0.664,0.481c0.484,0.487,0.75,1.132,0.748,1.817c-0.002,0.683-0.269,1.322-0.752,1.803l-9.844,9.811
				c-0.43,0.429-0.559,1.074-0.327,1.636c0.232,0.561,0.779,0.927,1.386,0.927c0,0,0,0,0,0l23.198-0.005
				c1.412,0,2.561,1.149,2.562,2.561C147.037,218.903,145.888,220.052,144.476,220.052z"/>
		</g>
	</g>
	<g>
		<g>
			<path class="st5" d="M61.895,147.989l-21.044-10.782c-1.992-1.015-4.444-0.231-5.462,1.766l-10.774,21.055
				c-1.026,2-0.231,4.444,1.766,5.462c1.981,1.023,4.428,0.237,5.459-1.761l6.292-12.297l7.156,22.018
				c0.693,2.133,2.984,3.3,5.117,2.607c2.133-0.693,3.3-2.985,2.607-5.118l-7.174-22.062l12.372,6.33
				c1.984,1.017,4.433,0.239,5.462-1.766c0.195-0.383,0.32-0.789,0.394-1.2C64.336,150.551,63.509,148.811,61.895,147.989z"/>
		</g>
	</g>
	<g>
		<g>
			<path class="st0" d="M62.58,146.654l-21.044-10.782c-0.001,0-0.002-0.001-0.003-0.001c-2.732-1.393-6.088-0.308-7.478,2.419
				l-10.773,21.054c-0.679,1.323-0.801,2.831-0.344,4.244c0.457,1.414,1.439,2.564,2.756,3.235c1.316,0.678,2.82,0.804,4.234,0.347
				c1.412-0.455,2.565-1.433,3.249-2.758l4.646-9.081l6.039,18.583c0.459,1.413,1.441,2.562,2.764,3.236
				c0.793,0.404,1.653,0.609,2.518,0.609c0.578,0,1.159-0.091,1.725-0.275c1.413-0.459,2.562-1.441,3.236-2.764
				c0.674-1.324,0.792-2.831,0.333-4.244l-6.051-18.608l9.139,4.675c1.318,0.676,2.821,0.798,4.233,0.344
				c1.416-0.456,2.569-1.436,3.25-2.764c0.251-0.492,0.43-1.037,0.538-1.645C65.929,150.093,64.735,147.751,62.58,146.654z
				 M62.589,151.979c-0.051,0.291-0.137,0.554-0.252,0.778c-0.313,0.611-0.845,1.063-1.497,1.273
				c-0.647,0.209-1.339,0.154-1.947-0.158l-12.373-6.33c-0.541-0.277-1.195-0.2-1.656,0.194c-0.462,0.394-0.641,1.027-0.453,1.605
				l7.174,22.062c0.211,0.65,0.157,1.345-0.153,1.954c-0.31,0.609-0.84,1.062-1.491,1.273c-0.651,0.212-1.344,0.156-1.954-0.153
				c-0.609-0.311-1.061-0.84-1.272-1.491l-7.156-22.019c-0.188-0.576-0.704-0.983-1.308-1.031c-0.04-0.003-0.08-0.005-0.119-0.005
				c-0.56,0-1.077,0.313-1.335,0.817l-6.289,12.292c-0.315,0.611-0.848,1.063-1.5,1.273c-0.648,0.208-1.337,0.153-1.945-0.161
				c-0.609-0.311-1.06-0.839-1.271-1.489c-0.21-0.649-0.153-1.343,0.16-1.953l10.774-21.057c0.639-1.254,2.184-1.752,3.444-1.111
				l21.045,10.783C62.21,149.832,62.76,150.909,62.589,151.979z"/>
		</g>
	</g>
	<g>
		<g>
			<path class="st5" d="M90.113,44.184l-23.354-3.74c-2.219-0.357-4.298,1.154-4.649,3.368c-0.36,2.2,1.144,4.284,3.362,4.648
				l13.639,2.184l-18.729,13.61c-1.814,1.318-2.216,3.858-0.898,5.672c1.319,1.814,3.858,2.216,5.673,0.898l18.765-13.641
				l-2.197,13.723c-0.354,2.201,1.143,4.291,3.368,4.649c0.425,0.067,0.849,0.061,1.263,0.004c1.692-0.266,3.092-1.59,3.375-3.379
				l3.75-23.346C93.83,46.624,92.327,44.534,90.113,44.184z"/>
		</g>
	</g>
	<g>
		<g>
			<path class="st0" d="M90.35,42.703l-23.352-3.74c-1.466-0.235-2.938,0.113-4.142,0.985c-1.204,0.872-1.994,2.161-2.226,3.621
				c-0.239,1.462,0.108,2.93,0.978,4.134c0.869,1.202,2.155,1.997,3.627,2.237l10.072,1.613L59.5,63.04
				c-2.48,1.802-3.031,5.287-1.229,7.768c0.873,1.202,2.162,1.991,3.629,2.224c1.468,0.231,2.936-0.121,4.138-0.994l15.828-11.506
				l-1.622,10.136c-0.487,3.023,1.581,5.88,4.614,6.368c0.278,0.044,0.563,0.066,0.857,0.066c0.282,0,0.573-0.021,0.874-0.062
				c2.387-0.375,4.245-2.235,4.622-4.624l3.75-23.346c0-0.001,0-0.002,0-0.003C95.442,46.036,93.372,43.181,90.35,42.703z
				 M91.999,48.597l-3.75,23.347c-0.175,1.103-1.029,1.959-2.098,2.128c-0.293,0.04-0.571,0.04-0.819,0.001
				c-1.396-0.225-2.35-1.539-2.125-2.93l2.197-13.723c0.096-0.6-0.179-1.198-0.696-1.516c-0.241-0.148-0.513-0.222-0.785-0.222
				c-0.31,0-0.62,0.096-0.882,0.287L64.275,69.61c-0.553,0.401-1.227,0.564-1.906,0.458c-0.676-0.107-1.269-0.47-1.671-1.024
				c-0.83-1.142-0.576-2.747,0.566-3.577l18.729-13.61c0.49-0.356,0.718-0.973,0.577-1.563c-0.141-0.589-0.623-1.036-1.222-1.132
				l-13.634-2.183c-0.678-0.111-1.273-0.478-1.674-1.033c-0.399-0.552-0.559-1.224-0.448-1.9c0.107-0.675,0.471-1.268,1.024-1.669
				c0.552-0.4,1.231-0.56,1.906-0.452l23.357,3.74C91.268,45.885,92.219,47.2,91.999,48.597z"/>
		</g>
	</g>
	<g>
		<g>
			<path class="st12" d="M232.196,95.019c-2.34-5.4-6.63-9.56-12.1-11.72c-2.62-1.03-5.36-1.55-8.09-1.55
				c-2.54,0-5.08,0.45-7.51,1.33c0.2,0.07,0.4,0.14,0.6,0.22c5.47,2.16,9.76,6.32,12.1,11.72c2.34,5.39,2.43,11.37,0.27,16.83
				c-2.16,5.47-6.32,9.76-11.71,12.1c-0.41,0.18-0.83,0.34-1.25,0.49c5.31,1.93,11.05,1.76,16.25-0.49
				c5.39-2.34,9.55-6.63,11.71-12.1C234.626,106.389,234.536,100.409,232.196,95.019z"/>
		</g>
	</g>
</g>
</svg>
