<?xml version="1.0" encoding="iso-8859-1"?>
<!-- Generator: Adobe Illustrator 22.0.1, SVG Export Plug-In . SVG Version: 6.00 Build 0)  -->
<svg version="1.1" id="Layer_1" xmlns="http://www.w3.org/2000/svg" xmlns:xlink="http://www.w3.org/1999/xlink" x="0px" y="0px"
	 viewBox="0 0 2048 2048" style="enable-background:new 0 0 2048 2048;" xml:space="preserve">
<g>
	<path style="fill:#E65A65;" d="M1487.202,505.663c9.47,9.262,24.659,9.095,33.921-0.376c9.263-9.47,9.095-24.659-0.375-33.921
		c-1.398-1.367-482.245-482.241-988.013-2.471c-9.573,9.108-9.951,24.254-0.843,33.827c9.108,9.573,24.254,9.951,33.827,0.843
		C1037.537,55.999,1485.898,504.388,1487.202,505.663z"/>
	<path style="fill:#E65A65;" d="M1144.439,472.974c12.834,3.105,25.757-4.783,28.862-17.616
		c3.105-12.834-4.782-25.757-17.616-28.862c-1.7-0.414-592.016-151.89-699.312,539.889c-2.018,13.041,6.918,25.252,19.959,27.269
		c13.041,2.018,25.252-6.918,27.269-19.959C602.828,333.94,1142.883,472.595,1144.439,472.974z"/>
	<path style="fill:#E65A65;" d="M1276.166,469.692c-12.523-4.191-26.076,2.564-30.267,15.087
		c-4.191,12.523,2.564,26.076,15.087,30.267c0.721,0.243,251.478,81.341,283.052,449.262c1.086,13.196,12.667,23.013,25.863,21.927
		c13.196-1.086,23.014-12.667,21.927-25.863C1557.542,560.822,1276.973,469.964,1276.166,469.692z"/>
	<path style="fill:#E65A65;" d="M1514.42,1296.481c10.143,8.487,25.248,7.145,33.735-2.999c8.487-10.143,7.145-25.248-2.999-33.735
		c-26.297-22.002-46.367-69.647-61.668-124.942c-15.996-57.814-26.372-123.831-33.249-179.055
		c-12.362-99.258-52.443-191.289-112.349-263.181c-43.121-51.75-96.438-93.062-157.046-119.188
		c-60.957-26.277-129.185-37.28-201.753-28.243c-88.621,11.038-183.554,52.023-279.24,131.758
		c-10.143,8.435-11.528,23.498-3.093,33.641c8.435,10.143,23.498,11.528,33.641,3.093c88.003-73.333,174.44-110.917,254.503-120.89
		c63.789-7.944,123.643,1.677,177.013,24.683c53.721,23.157,100.993,59.793,139.241,105.695
		c54.043,64.857,90.245,148.231,101.48,238.444c7.054,56.646,17.823,124.816,34.748,185.989
		C1455.01,1211.238,1479.652,1267.391,1514.42,1296.481z"/>
	<path style="fill:#E65A65;" d="M1425.995,1463.463c10.143,8.487,25.248,7.145,33.735-2.999c8.487-10.143,7.145-25.248-2.999-33.735
		c-25.014-20.93-53.505-86.797-78.437-166.832c-28.825-92.536-51.68-202.266-58.832-284.901l0.004-0.007
		c-0.109-1.257-0.314-2.483-0.604-3.672c-15.112-89.807-47.751-156.696-90.102-204.1c-35.579-39.823-77.916-65.784-122.528-79.972
		c-44.466-14.142-91.004-16.519-135.214-9.228c-55.775,9.197-108.165,33.828-148.286,69.674
		c-71.139,63.561-79.835,141.551-89.152,225.138c-0.747,6.71-1.508,13.521-2.802,24.386c-3.237,27.167-6.544,58.772-9.862,90.511
		c-14.924,142.714-30.15,288.291-90.919,422.498c-5.433,12.057-0.063,26.239,11.994,31.672c12.057,5.433,26.239,0.063,31.672-11.994
		c63.874-141.064,79.519-290.655,94.855-437.302c2.999-28.681,5.988-57.248,9.862-89.762c0.668-5.61,1.738-15.196,2.803-24.759
		c8.273-74.225,15.995-143.479,73.41-194.779c33.348-29.795,77.196-50.317,124.109-58.053c37.213-6.137,76.159-4.208,113.1,7.54
		c36.792,11.701,71.798,33.215,101.352,66.292c36.647,41.019,65.061,99.976,78.541,180.278
		c7.436,85.622,31.076,199.129,60.872,294.786C1359.947,1362.042,1393.433,1436.218,1425.995,1463.463z"/>
	<path style="fill:#E65A65;" d="M1355.255,1564.055c8.383,10.246,23.488,11.756,33.734,3.373
		c10.246-8.383,11.756-23.488,3.373-33.734c-17.832-21.782-55.796-79.279-93.69-150.538
		c-26.59-50.004-52.835-106.141-71.596-160.452c-17.171-49.705-22.124-86.525-27.611-127.329
		c-2.987-22.213-6.126-45.552-11.228-72.141c-6.775-35.314-14.993-65.356-24.375-90.677c-10.231-27.611-22.029-49.998-35.022-67.804
		c-22.357-30.64-53.38-48.986-86.417-55.103c-25.9-4.797-52.988-2.021-78.044,8.286c-24.867,10.229-47.656,27.809-65.158,52.672
		c-25.078,35.626-39.292,86.204-32.637,151.268c10.078,98.547,49.851,230.764,97.555,355.516
		c59.253,154.952,131.439,299.863,174.338,354.808c8.124,10.402,23.144,12.247,33.546,4.122
		c10.402-8.125,12.247-23.144,4.123-33.546c-40.245-51.544-109.425-191.31-167.215-342.438
		c-46.485-121.564-85.152-249.533-94.745-343.335c-5.357-52.385,5.25-91.922,24.203-118.846
		c12.057-17.128,27.49-29.131,44.168-35.991c16.491-6.783,34.278-8.619,51.246-5.476c21.471,3.976,41.723,16.016,56.431,36.174
		c10.279,14.086,19.91,32.598,28.649,56.185c8.545,23.062,16.065,50.611,22.313,83.181c5.026,26.194,8.012,48.391,10.853,69.517
		c5.796,43.102,11.026,81.994,29.861,136.512c19.962,57.784,47.134,116.101,74.406,167.386
		C1295.744,1479.786,1336.032,1540.575,1355.255,1564.055z"/>
	<path style="fill:#E65A65;" d="M669.069,837.878c5.382-12.057-0.031-26.196-12.088-31.578c-12.057-5.382-26.196,0.03-31.578,12.087
		c-35.195,78.854-42.234,184.909-49.061,287.835c-6.624,99.837-13.044,196.594-44.516,254.362
		c-6.314,11.592-2.034,26.109,9.557,32.422c11.592,6.314,26.109,2.034,32.422-9.557c36.587-67.157,43.349-169.07,50.326-274.227
		C630.683,1010.489,637.433,908.757,669.069,837.878z"/>
	<path style="fill:#E65A65;" d="M1049.007,968.014c-0.672-13.196-11.918-23.349-25.113-22.677
		c-13.196,0.672-23.349,11.918-22.677,25.114c6.265,121.556,31.674,257.963,81.38,388.954
		c42.829,112.867,103.669,221.821,185.805,314.06c8.797,9.884,23.944,10.765,33.828,1.968c9.885-8.797,10.765-23.943,1.968-33.828
		c-78.059-87.661-135.967-191.437-176.809-299.067C1079.508,1216.361,1055.037,1085.023,1049.007,968.014z"/>
	<path style="fill:#E65A65;" d="M1001.882,1781.435c7.399,10.971,22.296,13.865,33.266,6.466c10.971-7.4,13.865-22.296,6.466-33.267
		c-44.803-66.323-79.482-133.119-108.771-199.853c-29.596-67.434-53.836-135.011-77.417-202.01l0.045-0.092
		c-4.398-12.496-18.095-19.061-30.591-14.663c-8.66,3.048-14.471,10.564-15.759,19.05l-3.624,17.079
		c-19.194,90.656-36.734,173.486-89.222,267.215c-6.468,11.54-2.356,26.142,9.184,32.61c11.539,6.468,26.142,2.356,32.61-9.183
		c43.3-77.322,64.043-146.401,80.46-217.37c15.476,42.036,31.919,84.234,50.461,126.481
		C919.471,1643.351,955.486,1712.752,1001.882,1781.435z"/>
</g>
</svg>
